<svg xmlns="http://www.w3.org/2000/svg">
    <defs>
        <symbol id="phone" viewBox="0 0 14 14">
            <g clip-path="url(#a)">
                <path d="M12.877 9.19a7.948 7.948 0 0 1-2.497-.398c-.39-.134-.87-.011-1.11.234l-1.573 1.188c-1.826-.974-2.95-2.099-3.912-3.91L4.94 4.77c.3-.299.407-.736.278-1.146a7.96 7.96 0 0 1-.4-2.5C4.818.503 4.315 0 3.695 0h-2.57C.503 0 0 .504 0 1.123 0 8.223 5.776 14 12.877 14c.62 0 1.123-.504 1.123-1.123v-2.564c0-.62-.504-1.124-1.123-1.124Z" />
            </g>
            <defs>
                <clipPath id="a">
                    <path d="M0 0h14v14H0z" />
                </clipPath>
            </defs>
        </symbol>
        <symbol id='close' viewBox="0 0 20 20">
            <path fill-rule="evenodd" clip-rule="evenodd" d="M19.597 2.697 17.172.273 9.9 7.546 2.626.273.202 2.697l7.273 7.274-7.273 7.273 2.424 2.424L9.9 12.395l7.274 7.273 2.424-2.424-7.273-7.273 7.273-7.274Z" />
        </symbol>
        <symbol id='check' viewBox="0 0 12 9" xmlns="http://www.w3.org/2000/svg">
            <path d="M1.5 3.6 5.027 7l6.223-6" stroke-width="1.938"/>
        </symbol>
    </defs>
</svg>